<svg width="14" height="15" viewBox="0 0 14 15" fill="none" xmlns="http://www.w3.org/2000/svg">
<path opacity="0.34" d="M11.9583 6.04167C12.8333 6.04167 12.8333 6.33334 12.8333 6.91667V8.08334C12.8333 8.66667 12.8333 8.95834 11.9583 8.95834" stroke="#98949E" stroke-linecap="round" stroke-linejoin="round"/>
<path opacity="0.34" d="M3.72168 6.33333C3.91418 7.09749 3.91418 7.9025 3.72168 8.66666" stroke="#98949E" stroke-linecap="round" stroke-linejoin="round"/>
<path opacity="0.34" d="M5.76331 6.33333C5.95581 7.09749 5.95581 7.9025 5.76331 8.66666" stroke="#98949E" stroke-linecap="round" stroke-linejoin="round"/>
<path opacity="0.34" d="M7.80499 6.33333C7.99749 7.09749 7.99749 7.9025 7.80499 8.66666" stroke="#98949E" stroke-linecap="round" stroke-linejoin="round"/>
<path d="M7.58335 11.5833H4.08335C1.75002 11.5833 1.16669 11 1.16669 8.66667V6.33334C1.16669 4.00001 1.75002 3.41667 4.08335 3.41667H7.58335C9.91669 3.41667 10.5 4.00001 10.5 6.33334V8.66667C10.5 11 9.91669 11.5833 7.58335 11.5833Z" stroke="#98949E" stroke-linecap="round" stroke-linejoin="round"/>
</svg>
