<svg width="14" height="14" viewBox="0 0 14 14" fill="none" xmlns="http://www.w3.org/2000/svg">
<path d="M12.8334 7V5.25C12.8334 2.33333 11.6667 1.16666 8.75002 1.16666H5.25002C2.33335 1.16666 1.16669 2.33333 1.16669 5.25V8.75C1.16669 11.6667 2.33335 12.8333 5.25002 12.8333H7.00002" stroke="#98949E" stroke-linecap="round" stroke-linejoin="round"/>
<path opacity="0.4" d="M12.2267 10.4067L11.2759 10.7275C11.0134 10.815 10.8034 11.0192 10.7159 11.2875L10.395 12.2383C10.1209 13.0608 8.96585 13.0433 8.70918 12.2208L7.63002 8.74999C7.42002 8.06166 8.05585 7.41999 8.73835 7.63582L12.215 8.71499C13.0317 8.97166 13.0434 10.1325 12.2267 10.4067Z" stroke="#98949E" stroke-linecap="round" stroke-linejoin="round"/>
</svg>
