<svg width="16" height="17" viewBox="0 0 16 17" fill="none" xmlns="http://www.w3.org/2000/svg">
<path opacity="0.4" d="M4.83334 5.16666H11.1667V3.83333C11.1667 2.49999 10.6667 1.83333 9.16668 1.83333H6.83334C5.33334 1.83333 4.83334 2.49999 4.83334 3.83333V5.16666Z" stroke="white" stroke-miterlimit="10" stroke-linecap="round" stroke-linejoin="round"/>
<path d="M10.6667 10.5V13.1667C10.6667 14.5 10 15.1667 8.66668 15.1667H7.33334C6.00001 15.1667 5.33334 14.5 5.33334 13.1667V10.5H10.6667Z" stroke="white" stroke-miterlimit="10" stroke-linecap="round" stroke-linejoin="round"/>
<path d="M14 7.16667V10.5C14 11.8333 13.3333 12.5 12 12.5H10.6667V10.5H5.33333V12.5H4C2.66667 12.5 2 11.8333 2 10.5V7.16667C2 5.83334 2.66667 5.16667 4 5.16667H12C13.3333 5.16667 14 5.83334 14 7.16667Z" stroke="white" stroke-miterlimit="10" stroke-linecap="round" stroke-linejoin="round"/>
<path d="M11.3333 10.5H10.5267H4.66666" stroke="white" stroke-miterlimit="10" stroke-linecap="round" stroke-linejoin="round"/>
<path opacity="0.4" d="M4.66666 7.83333H6.66666" stroke="white" stroke-miterlimit="10" stroke-linecap="round" stroke-linejoin="round"/>
</svg>
