<svg width="14" height="15" viewBox="0 0 14 15" fill="none" xmlns="http://www.w3.org/2000/svg">
<path d="M11.0658 13.3333H2.89917C1.14917 13.3333 1.14917 12.5458 1.14917 11.5833V11C1.14917 10.6792 1.41167 10.4167 1.7325 10.4167H12.2325C12.5533 10.4167 12.8158 10.6792 12.8158 11V11.5833C12.8158 12.5458 12.8158 13.3333 11.0658 13.3333Z" stroke="#98949E" stroke-linecap="round" stroke-linejoin="round"/>
<path d="M12.0866 8.08334V10.4167H1.90747V8.08334C1.90747 5.84334 3.4883 3.97084 5.59414 3.52167C5.90914 3.45167 6.2358 3.41667 6.57414 3.41667H7.41997C7.7583 3.41667 8.0908 3.45167 8.4058 3.52167C10.5116 3.97667 12.0866 5.84334 12.0866 8.08334Z" stroke="#98949E" stroke-linecap="round" stroke-linejoin="round"/>
<path opacity="0.34" d="M8.45835 3.12501C8.45835 3.26501 8.44085 3.39334 8.40585 3.52167C8.09085 3.45167 7.75835 3.41667 7.42002 3.41667H6.57419C6.23585 3.41667 5.90919 3.45167 5.59419 3.52167C5.55919 3.39334 5.54169 3.26501 5.54169 3.12501C5.54169 2.32001 6.19502 1.66667 7.00002 1.66667C7.80502 1.66667 8.45835 2.32001 8.45835 3.12501Z" stroke="#98949E" stroke-linecap="round" stroke-linejoin="round"/>
<path opacity="0.34" d="M8.75 6.91666H5.25" stroke="#98949E" stroke-linecap="round" stroke-linejoin="round"/>
</svg>
